<?xml version="1.0" encoding="utf-8"?>
<!-- Generator: Adobe Illustrator 26.0.1, SVG Export Plug-In . SVG Version: 6.00 Build 0)  -->
<svg version="1.1" id="Bold" xmlns="http://www.w3.org/2000/svg" xmlns:xlink="http://www.w3.org/1999/xlink" x="0px" y="0px"
	 viewBox="0 0 682 682" style="enable-background:new 0 0 682 682;" xml:space="preserve">
<style type="text/css">
	.st0{fill:#999999;}
</style>
<path class="st0" d="M596.9,597L596.9,597l0.1,0V409.2c0-91.9-19.8-162.6-127.2-162.6c-51.6,0-86.3,28.3-100.4,55.2h-1.5v-46.6
	H266.1V597h106V427.7c0-44.6,8.4-87.7,63.6-87.7c54.4,0,55.2,50.9,55.2,90.5V597L596.9,597z"/>
<path class="st0" d="M93.4,255.2h106.2V597H93.4V255.2z"/>
<path class="st0" d="M146.5,85C112.5,85,85,112.5,85,146.5s27.5,62.1,61.5,62.1s61.5-28.1,61.5-62.1C207.9,112.5,180.4,85,146.5,85z
	"/>
</svg>
