<?xml version="1.0" encoding="utf-8"?>
<!-- Generator: Adobe Illustrator 26.0.1, SVG Export Plug-In . SVG Version: 6.00 Build 0)  -->
<svg version="1.1" id="Layer_1" xmlns="http://www.w3.org/2000/svg" xmlns:xlink="http://www.w3.org/1999/xlink" x="0px" y="0px"
	 viewBox="0 0 682 682" style="enable-background:new 0 0 682 682;" xml:space="preserve">
<style type="text/css">
	.st0{fill:#999999;}
</style>
<path class="st0" d="M599.5,211.3c-6.2-23.1-24.4-41.3-47.5-47.5c-42.2-11.5-211-11.5-211-11.5s-168.8,0-211,11.1
	c-22.7,6.2-41.3,24.9-47.5,48C71.4,253.5,71.4,341,71.4,341s0,87.9,11.1,129.7c6.2,23.1,24.4,41.3,47.5,47.5
	c42.6,11.5,211,11.5,211,11.5s168.8,0,211-11.1c23.1-6.2,41.3-24.4,47.5-47.5c11.1-42.2,11.1-129.7,11.1-129.7
	S611,253.5,599.5,211.3z M287.3,421.8V260.2L427.6,341L287.3,421.8z"/>
</svg>
