<?xml version="1.0" encoding="utf-8"?>
<!-- Generator: Adobe Illustrator 26.0.1, SVG Export Plug-In . SVG Version: 6.00 Build 0)  -->
<svg version="1.1" id="Capa_1" xmlns="http://www.w3.org/2000/svg" xmlns:xlink="http://www.w3.org/1999/xlink" x="0px" y="0px"
	 viewBox="0 0 682 682" style="enable-background:new 0 0 682 682;" xml:space="preserve">
<style type="text/css">
	.st0{fill:#999999;}
</style>
<g>
	<g>
		<path class="st0" d="M437,85H245c-88.4,0-160,71.6-160,160v192c0,88.4,71.6,160,160,160h192c88.4,0,160-71.6,160-160V245
			C597,156.6,525.4,85,437,85z M549,437c0,61.8-50.2,112-112,112H245c-61.8,0-112-50.2-112-112V245c0-61.8,50.2-112,112-112h192
			c61.8,0,112,50.2,112,112V437z"/>
	</g>
</g>
<g>
	<g>
		<path class="st0" d="M341,213c-70.7,0-128,57.3-128,128s57.3,128,128,128s128-57.3,128-128S411.7,213,341,213z M341,421
			c-44.1,0-80-35.9-80-80c0-44.1,35.9-80,80-80s80,35.9,80,80C421,385.1,385.1,421,341,421z"/>
	</g>
</g>
<g>
	<g>
		<circle class="st0" cx="478.6" cy="203.4" r="17.1"/>
	</g>
</g>
</svg>
